<mxfile host="app.diagrams.net" agent="Mozilla/5.0 (Windows NT 10.0; Win64; x64) AppleWebKit/537.36 (KHTML, like Gecko) Chrome/131.0.0.0 Safari/537.36 Edg/131.0.0.0" version="25.0.3">
  <diagram id="C5RBs43oDa-KdzZeNtuy" name="Page-1">
    <mxGraphModel dx="996" dy="567" grid="1" gridSize="10" guides="1" tooltips="1" connect="1" arrows="1" fold="1" page="1" pageScale="1" pageWidth="827" pageHeight="1169" math="0" shadow="0">
      <root>
        <mxCell id="WIyWlLk6GJQsqaUBKTNV-0" />
        <mxCell id="WIyWlLk6GJQsqaUBKTNV-1" parent="WIyWlLk6GJQsqaUBKTNV-0" />
        <mxCell id="3m--R2XFVAo0uJRAq6x1-3" value="" style="edgeStyle=orthogonalEdgeStyle;rounded=0;orthogonalLoop=1;jettySize=auto;html=1;" edge="1" parent="WIyWlLk6GJQsqaUBKTNV-1" source="3m--R2XFVAo0uJRAq6x1-0" target="3m--R2XFVAo0uJRAq6x1-2">
          <mxGeometry relative="1" as="geometry" />
        </mxCell>
        <mxCell id="3m--R2XFVAo0uJRAq6x1-0" value="Start" style="ellipse;whiteSpace=wrap;html=1;" vertex="1" parent="WIyWlLk6GJQsqaUBKTNV-1">
          <mxGeometry x="354" y="20" width="120" height="80" as="geometry" />
        </mxCell>
        <mxCell id="3m--R2XFVAo0uJRAq6x1-1" value="Stop" style="ellipse;whiteSpace=wrap;html=1;" vertex="1" parent="WIyWlLk6GJQsqaUBKTNV-1">
          <mxGeometry x="354" y="740" width="120" height="80" as="geometry" />
        </mxCell>
        <mxCell id="3m--R2XFVAo0uJRAq6x1-5" value="" style="edgeStyle=orthogonalEdgeStyle;rounded=0;orthogonalLoop=1;jettySize=auto;html=1;" edge="1" parent="WIyWlLk6GJQsqaUBKTNV-1" source="3m--R2XFVAo0uJRAq6x1-2" target="3m--R2XFVAo0uJRAq6x1-4">
          <mxGeometry relative="1" as="geometry" />
        </mxCell>
        <mxCell id="3m--R2XFVAo0uJRAq6x1-2" value="Nhập a, b, dấu phép tính" style="shape=parallelogram;perimeter=parallelogramPerimeter;whiteSpace=wrap;html=1;fixedSize=1;" vertex="1" parent="WIyWlLk6GJQsqaUBKTNV-1">
          <mxGeometry x="336" y="140" width="156" height="60" as="geometry" />
        </mxCell>
        <mxCell id="3m--R2XFVAo0uJRAq6x1-9" value="" style="edgeStyle=orthogonalEdgeStyle;rounded=0;orthogonalLoop=1;jettySize=auto;html=1;" edge="1" parent="WIyWlLk6GJQsqaUBKTNV-1" source="3m--R2XFVAo0uJRAq6x1-4" target="3m--R2XFVAo0uJRAq6x1-7">
          <mxGeometry relative="1" as="geometry" />
        </mxCell>
        <mxCell id="3m--R2XFVAo0uJRAq6x1-19" value="" style="edgeStyle=orthogonalEdgeStyle;rounded=0;orthogonalLoop=1;jettySize=auto;html=1;" edge="1" parent="WIyWlLk6GJQsqaUBKTNV-1" source="3m--R2XFVAo0uJRAq6x1-4" target="3m--R2XFVAo0uJRAq6x1-18">
          <mxGeometry relative="1" as="geometry" />
        </mxCell>
        <mxCell id="3m--R2XFVAo0uJRAq6x1-4" value="Dấu + ?&lt;span style=&quot;color: rgba(0, 0, 0, 0); font-family: monospace; font-size: 0px; text-align: start; text-wrap-mode: nowrap;&quot;&gt;%3CmxGraphModel%3E%3Croot%3E%3CmxCell%20id%3D%220%22%2F%3E%3CmxCell%20id%3D%221%22%20parent%3D%220%22%2F%3E%3CmxCell%20id%3D%222%22%20value%3D%22Start%22%20style%3D%22ellipse%3BwhiteSpace%3Dwrap%3Bhtml%3D1%3B%22%20vertex%3D%221%22%20parent%3D%221%22%3E%3CmxGeometry%20x%3D%22354%22%20y%3D%2220%22%20width%3D%22120%22%20height%3D%2280%22%20as%3D%22geometry%22%2F%3E%3C%2FmxCell%3E%3C%2Froot%3E%3C%2FmxGraphModel%3E&lt;/span&gt;" style="rhombus;whiteSpace=wrap;html=1;" vertex="1" parent="WIyWlLk6GJQsqaUBKTNV-1">
          <mxGeometry x="351" y="230" width="126" height="50" as="geometry" />
        </mxCell>
        <mxCell id="3m--R2XFVAo0uJRAq6x1-10" value="" style="edgeStyle=orthogonalEdgeStyle;rounded=0;orthogonalLoop=1;jettySize=auto;html=1;" edge="1" parent="WIyWlLk6GJQsqaUBKTNV-1" source="3m--R2XFVAo0uJRAq6x1-7" target="3m--R2XFVAo0uJRAq6x1-8">
          <mxGeometry relative="1" as="geometry" />
        </mxCell>
        <mxCell id="3m--R2XFVAo0uJRAq6x1-22" value="" style="edgeStyle=orthogonalEdgeStyle;rounded=0;orthogonalLoop=1;jettySize=auto;html=1;" edge="1" parent="WIyWlLk6GJQsqaUBKTNV-1" source="3m--R2XFVAo0uJRAq6x1-7" target="3m--R2XFVAo0uJRAq6x1-20">
          <mxGeometry relative="1" as="geometry" />
        </mxCell>
        <mxCell id="3m--R2XFVAo0uJRAq6x1-7" value="Dấu - ?&lt;span style=&quot;color: rgba(0, 0, 0, 0); font-family: monospace; font-size: 0px; text-align: start; text-wrap-mode: nowrap;&quot;&gt;%3CmxGraphModel%3E%3Croot%3E%3CmxCell%20id%3D%220%22%2F%3E%3CmxCell%20id%3D%221%22%20parent%3D%220%22%2F%3E%3CmxCell%20id%3D%222%22%20value%3D%22Start%22%20style%3D%22ellipse%3BwhiteSpace%3Dwrap%3Bhtml%3D1%3B%22%20vertex%3D%221%22%20parent%3D%221%22%3E%3CmxGeometry%20x%3D%22354%22%20y%3D%2220%22%20width%3D%22120%22%20height%3D%2280%22%20as%3D%22geometry%22%2F%3E%3C%2FmxCell%3E%3C%2Froot%3E%3C%2FmxGraphModel%3E&lt;/span&gt;" style="rhombus;whiteSpace=wrap;html=1;" vertex="1" parent="WIyWlLk6GJQsqaUBKTNV-1">
          <mxGeometry x="351" y="320" width="126" height="50" as="geometry" />
        </mxCell>
        <mxCell id="3m--R2XFVAo0uJRAq6x1-15" value="" style="edgeStyle=orthogonalEdgeStyle;rounded=0;orthogonalLoop=1;jettySize=auto;html=1;" edge="1" parent="WIyWlLk6GJQsqaUBKTNV-1" source="3m--R2XFVAo0uJRAq6x1-8">
          <mxGeometry relative="1" as="geometry">
            <mxPoint x="414" y="510" as="targetPoint" />
          </mxGeometry>
        </mxCell>
        <mxCell id="3m--R2XFVAo0uJRAq6x1-23" value="" style="edgeStyle=orthogonalEdgeStyle;rounded=0;orthogonalLoop=1;jettySize=auto;html=1;" edge="1" parent="WIyWlLk6GJQsqaUBKTNV-1" source="3m--R2XFVAo0uJRAq6x1-8" target="3m--R2XFVAo0uJRAq6x1-21">
          <mxGeometry relative="1" as="geometry" />
        </mxCell>
        <mxCell id="3m--R2XFVAo0uJRAq6x1-8" value="Dấu * ?&lt;span style=&quot;color: rgba(0, 0, 0, 0); font-family: monospace; font-size: 0px; text-align: start; text-wrap-mode: nowrap;&quot;&gt;%3CmxGraphModel%3E%3Croot%3E%3CmxCell%20id%3D%220%22%2F%3E%3CmxCell%20id%3D%221%22%20parent%3D%220%22%2F%3E%3CmxCell%20id%3D%222%22%20value%3D%22Start%22%20style%3D%22ellipse%3BwhiteSpace%3Dwrap%3Bhtml%3D1%3B%22%20vertex%3D%221%22%20parent%3D%221%22%3E%3CmxGeometry%20x%3D%22354%22%20y%3D%2220%22%20width%3D%22120%22%20height%3D%2280%22%20as%3D%22geometry%22%2F%3E%3C%2FmxCell%3E%3C%2Froot%3E%3C%2FmxGraphModel%3E&lt;/span&gt;" style="rhombus;whiteSpace=wrap;html=1;" vertex="1" parent="WIyWlLk6GJQsqaUBKTNV-1">
          <mxGeometry x="351" y="410" width="126" height="50" as="geometry" />
        </mxCell>
        <mxCell id="3m--R2XFVAo0uJRAq6x1-11" value="Sai" style="text;html=1;align=center;verticalAlign=middle;whiteSpace=wrap;rounded=0;" vertex="1" parent="WIyWlLk6GJQsqaUBKTNV-1">
          <mxGeometry x="351" y="290" width="60" height="30" as="geometry" />
        </mxCell>
        <mxCell id="3m--R2XFVAo0uJRAq6x1-13" value="Sai" style="text;html=1;align=center;verticalAlign=middle;whiteSpace=wrap;rounded=0;" vertex="1" parent="WIyWlLk6GJQsqaUBKTNV-1">
          <mxGeometry x="340" y="380" width="60" height="30" as="geometry" />
        </mxCell>
        <mxCell id="3m--R2XFVAo0uJRAq6x1-16" value="Sai" style="text;html=1;align=center;verticalAlign=middle;whiteSpace=wrap;rounded=0;" vertex="1" parent="WIyWlLk6GJQsqaUBKTNV-1">
          <mxGeometry x="340" y="470" width="60" height="30" as="geometry" />
        </mxCell>
        <mxCell id="3m--R2XFVAo0uJRAq6x1-28" value="" style="edgeStyle=orthogonalEdgeStyle;rounded=0;orthogonalLoop=1;jettySize=auto;html=1;" edge="1" parent="WIyWlLk6GJQsqaUBKTNV-1" source="3m--R2XFVAo0uJRAq6x1-17" target="3m--R2XFVAo0uJRAq6x1-27">
          <mxGeometry relative="1" as="geometry" />
        </mxCell>
        <mxCell id="3m--R2XFVAo0uJRAq6x1-17" value="x = a / b" style="rounded=1;whiteSpace=wrap;html=1;" vertex="1" parent="WIyWlLk6GJQsqaUBKTNV-1">
          <mxGeometry x="354" y="510" width="120" height="60" as="geometry" />
        </mxCell>
        <mxCell id="3m--R2XFVAo0uJRAq6x1-18" value="x = a + b" style="rounded=1;whiteSpace=wrap;html=1;" vertex="1" parent="WIyWlLk6GJQsqaUBKTNV-1">
          <mxGeometry x="570" y="225" width="120" height="60" as="geometry" />
        </mxCell>
        <mxCell id="3m--R2XFVAo0uJRAq6x1-20" value="x = a - b" style="rounded=1;whiteSpace=wrap;html=1;" vertex="1" parent="WIyWlLk6GJQsqaUBKTNV-1">
          <mxGeometry x="570" y="315" width="120" height="60" as="geometry" />
        </mxCell>
        <mxCell id="3m--R2XFVAo0uJRAq6x1-21" value="x = a * b" style="rounded=1;whiteSpace=wrap;html=1;" vertex="1" parent="WIyWlLk6GJQsqaUBKTNV-1">
          <mxGeometry x="570" y="405" width="120" height="60" as="geometry" />
        </mxCell>
        <mxCell id="3m--R2XFVAo0uJRAq6x1-24" value="Đúng" style="text;html=1;align=center;verticalAlign=middle;whiteSpace=wrap;rounded=0;" vertex="1" parent="WIyWlLk6GJQsqaUBKTNV-1">
          <mxGeometry x="490" y="225" width="60" height="30" as="geometry" />
        </mxCell>
        <mxCell id="3m--R2XFVAo0uJRAq6x1-25" value="Đúng" style="text;html=1;align=center;verticalAlign=middle;whiteSpace=wrap;rounded=0;" vertex="1" parent="WIyWlLk6GJQsqaUBKTNV-1">
          <mxGeometry x="490" y="310" width="60" height="30" as="geometry" />
        </mxCell>
        <mxCell id="3m--R2XFVAo0uJRAq6x1-26" value="Đúng" style="text;html=1;align=center;verticalAlign=middle;whiteSpace=wrap;rounded=0;" vertex="1" parent="WIyWlLk6GJQsqaUBKTNV-1">
          <mxGeometry x="490" y="400" width="60" height="30" as="geometry" />
        </mxCell>
        <mxCell id="3m--R2XFVAo0uJRAq6x1-29" value="" style="edgeStyle=orthogonalEdgeStyle;rounded=0;orthogonalLoop=1;jettySize=auto;html=1;" edge="1" parent="WIyWlLk6GJQsqaUBKTNV-1" source="3m--R2XFVAo0uJRAq6x1-27" target="3m--R2XFVAo0uJRAq6x1-1">
          <mxGeometry relative="1" as="geometry" />
        </mxCell>
        <mxCell id="3m--R2XFVAo0uJRAq6x1-27" value="In ra x" style="strokeWidth=2;html=1;shape=mxgraph.flowchart.display;whiteSpace=wrap;" vertex="1" parent="WIyWlLk6GJQsqaUBKTNV-1">
          <mxGeometry x="364" y="620" width="100" height="60" as="geometry" />
        </mxCell>
        <mxCell id="3m--R2XFVAo0uJRAq6x1-30" style="edgeStyle=orthogonalEdgeStyle;rounded=0;orthogonalLoop=1;jettySize=auto;html=1;exitX=1;exitY=0.5;exitDx=0;exitDy=0;entryX=1;entryY=0.5;entryDx=0;entryDy=0;entryPerimeter=0;" edge="1" parent="WIyWlLk6GJQsqaUBKTNV-1" source="3m--R2XFVAo0uJRAq6x1-18" target="3m--R2XFVAo0uJRAq6x1-27">
          <mxGeometry relative="1" as="geometry" />
        </mxCell>
        <mxCell id="3m--R2XFVAo0uJRAq6x1-31" style="edgeStyle=orthogonalEdgeStyle;rounded=0;orthogonalLoop=1;jettySize=auto;html=1;exitX=1;exitY=0.5;exitDx=0;exitDy=0;entryX=1;entryY=0.5;entryDx=0;entryDy=0;entryPerimeter=0;" edge="1" parent="WIyWlLk6GJQsqaUBKTNV-1" source="3m--R2XFVAo0uJRAq6x1-20" target="3m--R2XFVAo0uJRAq6x1-27">
          <mxGeometry relative="1" as="geometry" />
        </mxCell>
        <mxCell id="3m--R2XFVAo0uJRAq6x1-32" style="edgeStyle=orthogonalEdgeStyle;rounded=0;orthogonalLoop=1;jettySize=auto;html=1;exitX=1;exitY=0.5;exitDx=0;exitDy=0;entryX=1;entryY=0.5;entryDx=0;entryDy=0;entryPerimeter=0;" edge="1" parent="WIyWlLk6GJQsqaUBKTNV-1" source="3m--R2XFVAo0uJRAq6x1-21" target="3m--R2XFVAo0uJRAq6x1-27">
          <mxGeometry relative="1" as="geometry" />
        </mxCell>
      </root>
    </mxGraphModel>
  </diagram>
</mxfile>
